<svg width="1440" height="1024" viewBox="0 0 1440 1024" fill="none" xmlns="http://www.w3.org/2000/svg">
<g clip-path="url(#clip0_25_14)">
<rect width="1440" height="1024" fill="#6383FA"/>
<circle cx="977.224" cy="496.252" r="290" transform="rotate(123.339 977.224 496.252)" fill="#9FBBFC"/>
<circle cx="969.6" cy="493.74" r="290" transform="rotate(123.339 969.6 493.74)" fill="#6383FA"/>
<path d="M1072.5 192L1075.84 203.711L1087.66 200.75L1079.18 209.5L1087.66 218.25L1075.84 215.289L1072.5 227L1069.16 215.289L1057.34 218.25L1065.82 209.5L1057.34 200.75L1069.16 203.711L1072.5 192Z" fill="white"/>
<circle cx="1341.78" cy="325.587" r="22.5" transform="rotate(-95.8775 1341.78 325.587)" fill="white"/>
<path d="M1288.92 330.109C1289.83 339.734 1293.37 348.921 1299.17 356.659C1304.96 364.396 1312.78 370.384 1321.76 373.961C1330.74 377.539 1340.53 378.568 1350.06 376.934C1359.59 375.3 1368.48 371.067 1375.76 364.702C1383.03 358.337 1388.41 350.087 1391.3 340.861C1394.18 331.635 1394.46 321.791 1392.11 312.414C1389.76 303.038 1384.86 294.493 1377.96 287.722C1371.07 280.95 1362.43 276.215 1353.01 274.038L1352.47 276.393C1361.45 278.47 1369.69 282.987 1376.27 289.447C1382.85 295.907 1387.52 304.058 1389.77 313.003C1392.01 321.947 1391.74 331.338 1388.99 340.139C1386.24 348.94 1381.11 356.811 1374.17 362.883C1367.22 368.955 1358.74 372.992 1349.65 374.551C1340.56 376.109 1331.22 375.128 1322.65 371.715C1314.09 368.303 1306.63 362.591 1301.1 355.209C1295.57 347.828 1292.19 339.064 1291.33 329.883L1288.92 330.109Z" fill="white"/>
<circle cx="1318.49" cy="70.4857" r="5" transform="rotate(-95.8775 1318.49 70.4857)" fill="white"/>
<circle cx="1318.49" cy="97.4857" r="5" transform="rotate(-95.8775 1318.49 97.4857)" fill="white"/>
<circle cx="1318.49" cy="125.486" r="5" transform="rotate(-95.8775 1318.49 125.486)" fill="white"/>
<circle cx="1318.49" cy="154.486" r="5" transform="rotate(-95.8775 1318.49 154.486)" fill="white"/>
<circle cx="1284.49" cy="69.4857" r="5" transform="rotate(-95.8775 1284.49 69.4857)" fill="white"/>
<circle cx="1284.49" cy="96.4857" r="5" transform="rotate(-95.8775 1284.49 96.4857)" fill="white"/>
<circle cx="1284.49" cy="124.486" r="5" transform="rotate(-95.8775 1284.49 124.486)" fill="white"/>
<circle cx="1284.49" cy="153.486" r="5" transform="rotate(-95.8775 1284.49 153.486)" fill="white"/>
<circle cx="1250.49" cy="69.4857" r="5" transform="rotate(-95.8775 1250.49 69.4857)" fill="white"/>
<circle cx="1250.49" cy="96.4857" r="5" transform="rotate(-95.8775 1250.49 96.4857)" fill="white"/>
<circle cx="1250.49" cy="124.486" r="5" transform="rotate(-95.8775 1250.49 124.486)" fill="white"/>
<circle cx="1250.49" cy="153.486" r="5" transform="rotate(-95.8775 1250.49 153.486)" fill="white"/>
<circle cx="1352.49" cy="69.4857" r="5" transform="rotate(-95.8775 1352.49 69.4857)" fill="white"/>
<circle cx="1352.49" cy="96.4857" r="5" transform="rotate(-95.8775 1352.49 96.4857)" fill="white"/>
<circle cx="1352.49" cy="124.486" r="5" transform="rotate(-95.8775 1352.49 124.486)" fill="white"/>
<circle cx="1352.49" cy="153.486" r="5" transform="rotate(-95.8775 1352.49 153.486)" fill="white"/>
<circle cx="1386.49" cy="69.4857" r="5" transform="rotate(-95.8775 1386.49 69.4857)" fill="white"/>
<circle cx="1386.49" cy="96.4857" r="5" transform="rotate(-95.8775 1386.49 96.4857)" fill="white"/>
<circle cx="1386.49" cy="124.486" r="5" transform="rotate(-95.8775 1386.49 124.486)" fill="white"/>
<circle cx="1386.49" cy="153.486" r="5" transform="rotate(-95.8775 1386.49 153.486)" fill="white"/>
<circle cx="315.402" cy="-3.07889" r="90" transform="rotate(-160 315.402 -3.07889)" fill="url(#paint0_linear_25_14)"/>
<path d="M268.295 122.14C292.441 131.167 318.611 133.353 343.92 128.456C369.229 123.559 392.694 111.769 411.73 94.3864C430.766 77.0033 444.632 54.7021 451.801 29.9406C458.971 5.17923 459.164 -21.0809 452.36 -45.9452C445.556 -70.8095 432.02 -93.3125 413.242 -110.974C394.464 -128.635 371.175 -140.769 345.941 -146.039C320.707 -151.308 294.508 -149.507 270.232 -140.836C245.955 -132.165 224.545 -116.959 208.359 -96.8955L211.45 -94.4026C227.176 -113.897 247.979 -128.672 271.567 -137.097C295.155 -145.522 320.611 -147.272 345.129 -142.152C369.648 -137.032 392.277 -125.242 410.522 -108.082C428.767 -90.9212 441.92 -69.0563 448.53 -44.8972C455.141 -20.7381 454.953 4.77725 447.988 28.8364C441.022 52.8956 427.548 74.5644 409.053 91.4544C390.557 108.344 367.757 119.8 343.166 124.558C318.574 129.316 293.147 127.192 269.686 118.421L268.295 122.14Z" fill="white"/>
<path d="M212.749 -137.401C211.987 -138.334 210.61 -138.474 209.685 -137.701C183.52 -115.85 163.436 -87.6977 151.575 -56.2102C139.461 -24.0507 136.393 10.3388 142.712 43.1678C149.03 75.9968 164.489 105.991 187.383 129.843C210.278 153.695 239.72 170.481 272.464 178.348C305.208 186.216 339.982 184.86 372.955 174.431C405.927 164.002 435.817 144.904 459.329 119.243C482.841 93.5815 499.064 62.3528 506.208 28.9991C513.183 -3.56414 511.24 -36.9185 500.607 -67.5578C500.183 -68.7787 498.824 -69.3882 497.623 -68.9096C496.475 -68.452 495.899 -67.1661 496.305 -65.9988C506.705 -36.0821 508.61 -3.50829 501.799 28.2922C494.828 60.8347 479 91.3038 456.06 116.341C433.119 141.378 403.956 160.012 371.786 170.187C339.616 180.362 305.687 181.685 273.739 174.009C241.792 166.333 213.066 149.956 190.728 126.683C168.39 103.411 153.308 74.1468 147.143 42.1163C140.979 10.0858 143.971 -23.4673 155.791 -54.8446C167.358 -85.5499 186.938 -113.005 212.447 -134.319C213.372 -135.092 213.512 -136.467 212.749 -137.401Z" fill="white"/>
<circle cx="178.158" cy="110.852" r="31" transform="rotate(-160 178.158 110.852)" fill="url(#paint1_linear_25_14)"/>
<path d="M553.5 16L556.842 27.7111L568.655 24.75L560.184 33.5L568.655 42.25L556.842 39.2889L553.5 51L550.158 39.2889L538.345 42.25L546.816 33.5L538.345 24.75L550.158 27.7111L553.5 16Z" fill="white"/>
<path d="M154.5 204L157.842 215.711L169.655 212.75L161.184 221.5L169.655 230.25L157.842 227.289L154.5 239L151.158 227.289L139.345 230.25L147.816 221.5L139.345 212.75L151.158 215.711L154.5 204Z" fill="white"/>
<path d="M392.5 176L395.842 187.711L407.655 184.75L399.184 193.5L407.655 202.25L395.842 199.289L392.5 211L389.158 199.289L377.345 202.25L385.816 193.5L377.345 184.75L389.158 187.711L392.5 176Z" fill="white"/>
<circle cx="19.7889" cy="580.271" r="290" transform="rotate(-132.282 19.7889 580.271)" fill="#9AB6F8"/>
<circle cx="24.224" cy="574.526" r="290" transform="rotate(-132.282 24.224 574.526)" fill="#6383FA"/>
<circle cx="17" cy="580" r="78" fill="white"/>
</g>
<defs>
<linearGradient id="paint0_linear_25_14" x1="248.402" y1="-64.0789" x2="485.402" y2="18.9211" gradientUnits="userSpaceOnUse">
<stop stop-color="#749AF0"/>
<stop offset="1" stop-color="#EEEEEE"/>
</linearGradient>
<linearGradient id="paint1_linear_25_14" x1="155.08" y1="89.8409" x2="236.714" y2="118.43" gradientUnits="userSpaceOnUse">
<stop stop-color="#749AF0"/>
<stop offset="1" stop-color="#EEEEEE"/>
</linearGradient>
<clipPath id="clip0_25_14">
<rect width="1440" height="1024" fill="white"/>
</clipPath>
</defs>
</svg>
